<?xml version="1.0" encoding="utf-8"?>
<!-- Generator: Adobe Illustrator 24.1.2, SVG Export Plug-In . SVG Version: 6.00 Build 0)  -->
<svg version="1.1" id="Layer_1" xmlns="http://www.w3.org/2000/svg" xmlns:xlink="http://www.w3.org/1999/xlink" x="0px" y="0px"
	 viewBox="0 0 180.72 66.67" enable-background="new 0 0 180.72 66.67" xml:space="preserve">
<defs>
	<filter id="Adobe_OpacityMaskFilter" filterUnits="userSpaceOnUse" x="0.36" y="5.34" width="67.18" height="48.89">
		<feFlood  style="flood-color:white;flood-opacity:1" result="back"/>
		<feBlend  in="SourceGraphic" in2="back" mode="normal"/>
	</filter>
</defs>
<mask maskUnits="userSpaceOnUse" x="0.36" y="5.34" width="67.18" height="48.89" id="SVGID_1_">
	<g filter="url(#Adobe_OpacityMaskFilter)">
		<polygon stroke="#000000" stroke-width="7" stroke-miterlimit="10" points="20.16,27.44 -12.37,26.92 -14.77,15.46 17.75,15.98 		
			"/>
	</g>
</mask>
<g mask="url(#SVGID_1_)">
	<path fill="#FFFFFF" d="M21.41,54.23L0.36,5.34L67.54,5.4L21.41,54.23z M11,12.35l12.63,29.34l27.68-29.3L11,12.35z"/>
</g>
<defs>
	<filter id="Adobe_OpacityMaskFilter_1_" filterUnits="userSpaceOnUse" x="29.56" y="37.11" width="36.47" height="26.36">
		<feFlood  style="flood-color:white;flood-opacity:1" result="back"/>
		<feBlend  in="SourceGraphic" in2="back" mode="normal"/>
	</filter>
</defs>
<mask maskUnits="userSpaceOnUse" x="29.56" y="37.11" width="36.47" height="26.36" id="SVGID_2_">
	<g filter="url(#Adobe_OpacityMaskFilter_1_)">
		<polygon stroke="#000000" stroke-width="7" stroke-miterlimit="10" points="38.54,51.23 28.76,51.37 27.58,43.94 37.37,43.79 		
			"/>
	</g>
</mask>
<g mask="url(#SVGID_2_)">
	<path fill="#FFFFFF" d="M40.57,63.47L29.56,37.11l36.47,0.25L40.57,63.47z M34.08,40.14l7.51,17.99l17.37-17.82L34.08,40.14z"/>
</g>
<g>
	<path fill="#FFFFFF" d="M89.27,5.34v2.14h-7.64v6.45h6.42v2.14h-6.42v8.45h8.94v2.14H75.44V5.34H89.27z"/>
	<path fill="#FFFFFF" d="M107.47,5.34v2.14h-5.23v19.19h-6.56V7.48h-5.27V5.34H107.47z"/>
	<path fill="#FFFFFF" d="M118.77,5.34l5.94,21.33h-6.22l-1.27-4.63h-6.42l-1.36,4.63h-2.42l6.31-21.33H118.77z M111.41,19.91h5.23
		l-2.52-9.45L111.41,19.91z"/>
	<path fill="#FFFFFF" d="M132.56,5.34v19.19h8.77v2.14h-14.95V5.34H132.56z"/>
	<path fill="#FFFFFF" d="M151.36,4.97c6.21,0,9.31,3.68,9.31,11.03c0,7.35-3.16,11.03-9.48,11.03c-6.32,0-9.48-3.76-9.48-11.28
		C141.7,8.56,144.92,4.97,151.36,4.97z M151.19,6.67c-1.17,0-1.96,0.64-2.37,1.93c-0.41,1.29-0.62,3.75-0.62,7.4
		c0,3.65,0.21,6.11,0.62,7.4c0.41,1.29,1.2,1.93,2.37,1.93c1.17,0,1.96-0.64,2.37-1.93c0.41-1.29,0.62-3.75,0.62-7.4
		c0-3.64-0.21-6.1-0.62-7.39C153.14,7.32,152.35,6.67,151.19,6.67z"/>
	<path fill="#FFFFFF" d="M179,5.34v21.33h-4.73l-8.91-13.5v13.5h-2.08V5.34h3.92l9.72,14.58V5.34H179z"/>
	<path fill="#FFFFFF" d="M75.45,58.67V37.34h9.2c5.22,0,7.83,2.09,7.83,6.27c0,4.22-2.9,6.33-8.7,6.33h-2.14v8.73H75.45z
		 M81.64,47.97h1.39c2.25,0,3.38-1.49,3.38-4.47c0-2.79-1.13-4.19-3.38-4.19h-1.39V47.97z"/>
	<path fill="#FFFFFF" d="M94.56,58.67V37.34h9.17c2.38,0,4.29,0.5,5.72,1.51c1.43,1.01,2.14,2.35,2.14,4.04
		c0,2.58-1.53,4.27-4.59,5.05c1.57,0.58,2.59,1.22,3.05,1.92c0.46,0.7,0.78,2.05,0.95,4.06c0.2,2.4,0.6,3.98,1.2,4.75h-6.72
		c-0.43-0.99-0.64-2.22-0.64-3.7l-0.03-1.27l-0.03-1.59c0-2.46-0.99-3.69-2.97-3.69h-1.06v10.25H94.56z M100.75,46.66H102
		c2.34,0,3.52-1.22,3.52-3.67c0-2.45-1.17-3.67-3.52-3.67h-1.25V46.66z"/>
	<path fill="#FFFFFF" d="M123.5,36.97c6.21,0,9.31,3.68,9.31,11.03c0,7.35-3.16,11.03-9.48,11.03c-6.32,0-9.48-3.76-9.48-11.28
		C113.85,40.56,117.06,36.97,123.5,36.97z M123.33,38.67c-1.17,0-1.96,0.64-2.37,1.93c-0.41,1.29-0.62,3.75-0.62,7.4
		c0,3.65,0.21,6.11,0.62,7.4c0.41,1.29,1.2,1.93,2.37,1.93c1.17,0,1.96-0.64,2.37-1.93c0.41-1.29,0.62-3.75,0.62-7.4
		c0-3.64-0.21-6.1-0.62-7.39C125.28,39.32,124.5,38.67,123.33,38.67z"/>
	<path fill="#FFFFFF" d="M149.45,37.34v2.14h-7.73v7.11h6.56v2.14h-6.56v9.94h-6.19V37.34H149.45z"/>
	<path fill="#FFFFFF" d="M157.74,37.34v21.33h-6.19V37.34H157.74z"/>
</g>
</svg>
